<svg version="1.1" id="Layer_1" xmlns="http://www.w3.org/2000/svg" x="0px" y="0px" viewBox="0 0 286.9 300" style="enable-background:new 0 0 286.9 300" xml:space="preserve"><style>.st0{fill:#233F84}.st1{fill:#44B1AB}</style><g id="surface1"><path class="st0" d="M49,258l4,2.5c0.7-1.1,1.3-2.3,1.8-3.3c-1.4-0.8-3-1.8-4.4-2.6c-0.4,0.7-0.9,1.5-1.3,2.2 c-1.4-0.8-3.1-2-4.1-2.5c-0.7,1.1-1.2,2.3-1.7,3.4l4.3,2.7C48,259.5,48.5,258.7,49,258z"/><path class="st0" d="M61.7,285.6l-4-2.6l-1.9,3.4l4.3,2.7c0.5-0.7,1-1.9,1.5-2.4c1.3,0.9,2.7,1.8,4,2.5c0.6-1.1,1.3-2.3,1.7-3.3 l-4.3-2.7C62.6,284.1,62.2,284.9,61.7,285.6z"/><path class="st0" d="M65.7,263.1c-0.8,1.2-2.1,3.7-2.1,4.1s1.3,2.6,1.7,3.8c0.4,1.1,0.8,2.3,0.8,3.5h-10c-0.6,0-1.5,0.1-1.9-0.6 l1-7.2v-1.9c-1.2,1.2-2.5,2.7-3.4,4.1l-0.2,0.9v4.6c-1,0-9,0-9.8,0c-1.8-0.6-5.9-5.9-8.3-8.4c-2.4-2.5-5.5-5.4-7.3-7.2 c4.7-2.1,9.5-4,14.1-5.9c0.6-1.6,1.2-3.3,1.5-4.6c-3.3,1.2-6.9,2.7-11.1,4.9c-1.7,0.9-4.7,2.1-5,2.5c-1.4,1.4-1.5,3.5-1.9,4.9 c-0.1,0.4-0.1,1-0.1,1.4c0,0.3,0.4,0.8,0.7,1.2c0.8,1.1,2.2,2.6,3.1,3.4l0.8-0.7c1.5,1.4,3.2,3,4.7,4.4c1.1,1,2.7,2.7,2.7,3.1 c0,0.3-0.6,1-1.1,1c-1,0-12.2,0-12.9,0c-0.2-0.4-0.5-0.6-0.6-0.7c-2.8-2.4-2.6-6.9-4.8-10.6c-0.5,0-1,0-1.5,0.2 c-0.4,0.2-1.3,0.4-1.8,0.6c-4,2.3-10.4,3.7-12.5,9.7c-0.3,0.9-0.6,2.7-0.6,3c0,3.9,2.7,13.1,3.4,16.6c0.5,2.2,0.6,4.9,0.9,6.7 c1.1-2.5,1.3-5.1,1.6-7.6L2.2,275c1.5-2.1,4.5-3.6,6.7-4.3v0.2c-0.3,1.2-1,2.9-1,3.2c0,0.7,3.8,3.2,4.4,3.5c2.4,0.9,4.4,2,6.6,3.3 c0.4-0.8,1-1.6,1.5-2.4h1.8v0h12.2l0.8-0.5c1-0.8,2-2.4,2.3-2.4c0.3,0,1.9,1.9,2.7,2.9c2.1,0,7.5,0,9.7,0c0.5-0.8,1-1.6,1.5-2.3 c0.4,0.5,0.5,1.2,0.8,1.5c0.3,0.4,0.9,0.8,1.2,0.8h2.9v0h11.1c0.4-2.3,1-6.4,1-6.7c0-0.4-0.1-1.9-0.3-2.7 C67.7,267.5,66.6,265,65.7,263.1z M10.7,270.4c1.2-0.8,3.7-2.4,4.2-2.3h0.6c-0.1,1.9,1.9,5.1,2.6,7.3 C15.5,274.4,11.2,272.1,10.7,270.4z"/><path class="st0" d="M135.5,286.7l4.2,2.8c0.7-1.2,1.4-2.4,1.8-3.4c-1.4-0.8-2.9-1.9-4.3-2.5C136.7,284.5,136.2,285.5,135.5,286.7 z"/><path class="st0" d="M140.4,267.4c0,0.3,2.4,4.7,2.4,6.7c0,0.3,0.1,0.4-0.1,0.4c-1.2,0-9.6,0-10.5,0c0,0-7.6,0-7.6,0 c-0.3,0-1-0.7-1.2-1l-0.1-0.4l-0.1-0.6c0.9-0.3,1.9-0.7,2.8-0.8c0.8-0.3,3.6-0.2,4.5-0.2l1.5-4.1c-1.6,0-3.2,0.1-5-0.2 c-3.3-0.6-6.5-1.8-9.5-2.6c-0.8-0.3-2.2-0.3-2.6-0.3c-0.3,0-0.8-0.1-1.1,0.1c-2,0.3-3.6,2.7-4.2,4.2c-0.1,0.4-0.4,1-0.4,1.3v0.8 c1.3-0.7,1.7-1.7,3.3-1.9c0.3-0.1,0.6-0.2,0.9-0.2c0.3,0,5.4,1.2,8.1,2c-1.8,1.5-3.7,2.7-5.3,3.4c-1.2,0.4-3.1,0.7-3.3,0.7 c-1.4,0-8.3,0-9.7,0c-0.8-1.2-1.4-2.1-1.6-2.7c-0.4-1.1-0.9-2.3-1.1-3.4c-0.1-0.5,0-1.7-0.1-2.2c-0.1-0.3-0.6-0.6-0.9-0.6 c-0.3,0-1.7,0.4-2.2,0.6c-1.4,0.5-4.2,2.4-5.1,3.5c-1.2,1.3-0.9,3.2-2,4.4l-0.8,0.4h-5.6c-1.6,0-4.2,0.2-4.7-2 c-1.5-10.9-1.3-15.4-2.4-27.1c-0.8,1-1.9,2.3-2.6,3.6c-0.1,0.3-0.1,0.5-0.1,0.9l2.1,28.6h7.7v0h5.8c0.3,0,0.4-0.3,0.5-0.4 c0.4-0.5,0.7-2.3,1.6-2.3l9.5,5.4c0.4-0.8,0.8-1.8,1.1-2.6h1.4v0h10.4c0.3,0,0.8-0.2,1-0.3c1.1-0.5,2.2-1.5,3.1-2.3 c1-0.8,2.2-1.5,3.1-2.4c0.3,1.2,0.4,2.6,0.9,3.8c0.1,0.5,0.8,1.2,1.1,1.2h8.8c0.8,0,10.7,0,11.8,0c0.5-2.2,1.2-6.2,1.2-6.5 c0-2.2-1.7-7.3-2.9-8.6C141.6,264.7,140.4,267.1,140.4,267.4z M98.7,274.6c-0.3,0-1.1-0.3-1.8-0.6c-1.1-0.5-2.2-1.4-3.2-2.1 c0.3-0.6,1.5-1.7,2.1-1.8c0.9-0.3,1.9-0.6,2.6,0c1,1,1,2.8,1.4,4.1C99.6,274.5,99.1,274.6,98.7,274.6z"/><path class="st0" d="M171,258.4c-1.5-0.9-3.3-1.9-4.7-2.6l-1.7,3.4l4.5,2.8C169.8,260.9,170.4,259.4,171,258.4z"/><path class="st0" d="M181.5,275c0-3.4-1.2-8.4-3.4-10.9l-2.2,4.6c1.2,2.3,3.3,6.7,3.3,9.4c0,4.6-9.6,6.1-11.5,6.1 c-3.5,0-7.8-1.9-7.8-7.2c0-2.8,1.9-5.5,2.5-8.6h-0.5c-2.1,1.9-4.2,9-4.2,12c0,5.9,4.5,8.1,8.7,8.1 C173.3,288.5,181.5,285.2,181.5,275z"/><path class="st0" d="M216.1,263.7c-0.9-0.1-2.2,0.2-3,0.5c-3,0.8-5.9,4.9-6.9,7.7c-0.3,0.9-0.4,1.7-1.1,2.3 c-0.1,0-0.1,0.3-0.4,0.3h-5.9c-0.8,0-2.1,0.1-2.2-1c-0.4-3.1-0.8-7.2-3.5-9.4c-0.5-0.5-1.5-0.5-1.9-0.2c-0.7,0.4-1.8,1.5-2.2,2.2 c-1.3,2.1-2.1,4-2.5,6.3c-0.1,1.2-0.2,2.2,0.3,3.4c1.6,3.2,5.2,2.1,7.8,2.5c-1.7,4.4-7.5,10.4-12.2,9.7c-1.1-0.2-2.7-0.8-3.8-1.1 c-0.3-0.1-0.7-0.2-1-0.2s-0.5,0.3-0.6,0.5c1,1.1,3,1.8,4.2,2c2.3,0.5,5.5,1.4,5.8,1.4c0.3,0,1.3-0.1,1.7-0.3 c0.7-0.3,1.7-0.9,2.2-1.3c2.9-2.7,4.3-6.5,5.1-9.4c0.1-0.4,0.1-0.8,0.3-1.3c1.5,0,5.9,0,7.5,0l1.1-0.5c1-0.8,1.4-2.5,2.1-3.4 l9.8,3.4c0.8-0.5,1.4-2.5,1.7-3.4c0.1-0.3,0.3-0.9,0.3-1.2s-1.5-4.7-2.1-6.9C216.4,265.6,216.6,264.4,216.1,263.7z M192.8,273.9 c-0.3,0-0.7,0.1-1.1-0.1c-0.9-0.1-1.9-0.4-2.6-0.9c-0.4-0.2-1-0.8-1-1.1c0-1.1,2.3-3.2,2.5-3.2c0.2-0.1,0.9-0.1,1,0 c0.3,0.1,0.7,0.3,1.1,0.8c0.9,1,1.5,3,1.5,4.1C193.9,273.9,193.2,273.9,192.8,273.9z M215.9,273.2l-0.4,0.2l-6.4-2.4 c0.2-0.9,2.1-2.7,3-2.9c0.4-0.2,1.3,0,1.7,0.3c0.7,0.4,1.4,1.6,1.6,2.3c0.2,0.4,0.4,0.9,0.4,1.2V273.2z"/><path class="st0" d="M235.9,256.7l-4.2-2.7c-0.7,1.2-1.4,2.3-1.9,3.3l4.2,2.8C234.7,259.1,235.4,257.8,235.9,256.7z"/><path class="st0" d="M248.6,258l4,2.5c0.7-1.1,1.3-2.3,1.9-3.3c-1.4-0.8-3-1.8-4.4-2.6c-0.4,0.7-0.9,1.5-1.3,2.2 c-1.4-0.8-3.1-2-4.1-2.5c-0.7,1.1-1.2,2.3-1.7,3.4l4.3,2.7C247.6,259.5,248.1,258.7,248.6,258z"/><path class="st0" d="M284.8,266.6c-0.3-1-0.1-2.2-0.6-2.8c-0.9-0.1-2.2,0.2-3,0.5c-3,0.8-5.9,4.9-6.9,7.7 c-0.3,0.9-0.4,1.7-1.1,2.3c-0.1,0-0.1,0.3-0.4,0.3c-1.2,0-6.2,0-7.3,0c-0.9-9.3-1-16.9-1.9-26.1l-3.3,4.3l2.7,21.8h-7.2 c-0.6,0-1.5,0.1-1.9-0.6l1-7.2v-1.9c-1.2,1.2-2.5,2.7-3.4,4.1l-0.2,0.9v4.6c-0.6,0-8.8,0-9.1,0c-3-1.1-5.5-6.1-7-8.4l-2.1,4.1 c0.5,0.6,3.7,4.7,3.7,5.8c0,2.4-7.1,11.4-11.2,11.4c-1.8,0-4.8-1.8-5.3-1.8c-0.1,0-0.4,0.1-0.6,0.7c0.6,0.5,1.6,1,2.2,1.4 c0.4,0.2,6.1,2.6,7.4,2.6c0.3,0,1.7-0.3,2.3-0.8c4.3-3.6,6.3-8.3,7.1-12.5c0.4,0.4,1,0.9,1.4,1.2c0.5,0.4,1.2,0.5,1.7,0.5v0h7.7 c0.5-0.8,1-1.6,1.5-2.3c0.4,0.5,0.5,1.2,0.8,1.5c0.3,0.4,0.9,0.8,1.2,0.8c0.7,0,2.2,0,2.9,0c0,0,5.8,0,5.8,0 c0.3,0,1.2-1.2,1.4-1.8l0.2,0.3c0,0.5,0.1,1.1,0.1,1.5c2.2,0,6.4,0,8.6,0l1.1-0.5c1-0.8,1.4-2.5,2.1-3.4l9.8,3.4 c0.8-0.5,1.4-2.5,1.7-3.4c0.1-0.3,0.2-0.9,0.2-1.2S285.3,268.8,284.8,266.6z M283.9,273.2l-0.4,0.2l-6.4-2.4c0.2-0.9,2-2.7,3-2.9 c0.4-0.2,1.3,0,1.7,0.3c0.6,0.4,1.4,1.6,1.6,2.3c0.2,0.4,0.4,0.9,0.4,1.2V273.2z"/><path class="st0" d="M183,31.4C177.6,13.8,162-0.7,142.4,0c-19.4,0.7-34.2,13.9-38.8,31.4c0,0,27.2-5.4,37.9,22.9V9.4 C141.5,9.4,162.2,2.1,183,31.4"/><path class="st1" d="M139.8,68.9c-5.5-17.6-21-32.1-40.6-31.4c-19.4,0.7-34.2,13.9-38.8,31.4c0,0,27.1-5.4,37.9,22.9V46.9 C98.2,46.9,118.9,39.6,139.8,68.9"/><path class="st1" d="M226.3,68.9c-5.4-17.6-21-32.1-40.7-31.4c-19.4,0.7-34.2,13.9-38.8,31.4c0,0,27.2-5.4,37.9,22.9V46.9 C184.8,46.9,205.5,39.6,226.3,68.9"/><path class="st0" d="M272.7,107.8c-5.5-17.6-21-32.1-40.7-31.4c-19.4,0.7-34.2,13.9-38.8,31.4c0,0,27.1-5.4,37.9,22.9V85.7 C231.2,85.7,251.9,78.4,272.7,107.8"/><path class="st0" d="M183,107.8c-5.5-17.6-21-32.1-40.7-31.4c-19.4,0.7-34.2,13.9-38.8,31.4c0,0,27.1-5.4,37.9,22.9V85.7 C141.5,85.7,162.2,78.4,183,107.8"/><path class="st0" d="M93.3,107.8c-5.5-17.6-21-32.1-40.6-31.4c-19.4,0.7-34.2,13.9-38.8,31.4c0,0,27.1-5.4,37.9,22.9V85.7 C51.8,85.7,72.5,78.4,93.3,107.8"/><g><polygon class="st0" points="65,177.9 67.1,179.8 68.8,177.6 66.9,175.6"/><polygon class="st0" points="61.2,178.3 63.3,180.2 65,178 63.1,176.1"/><path class="st0" d="M80.3,163.2c-1.3,0-2.3-0.7-2.9-1.5c-0.8-1-1-1.9-1-2c0-0.7,2.6-1,2.7-1c1.7,0,3.5,1.1,4.3,1.2 c0-0.7-1-1.9-1.6-2.3c-1.8-1.6-2.7-1.9-4-2c-2.1,0-4.5,2.8-4.6,5c0,1.3,0.3,1.7,0.4,2.1h-3.9v0c-1.1,0-2.6,0-2.8,0 c-2.8,0.6-3.6,1-4.6,2c-1.3,1.4-1.9,3-1.9,3.6c0,2,2.8,1.6,3.7,2.2c-0.5,0.4-2.7,1.1-4.1,1.1c-2.1,0-4.2-1.6-4.2-3.8 c0-2,1.5-3.8,1.5-4.4c0-0.4-0.2-0.7-0.4-0.7c-0.2,0-0.3,0-1.3,1.7c-2.6,3.6-3.1,11,3.2,10.9c1.5,0,4.4-0.4,7.1-2.7 c1.5-1.2,2.1-2.7,2.1-3.3c0-2.1-1.8-2.2-3.5-2.6h6.3v0h12.2l1.9-4.1l-0.3-0.2C83.9,162.5,83.2,163.2,80.3,163.2z"/><polygon class="st0" points="114.9,153.7 112.8,151.7 110.8,154.1 113,156.1"/><polygon class="st0" points="110.9,154.2 108.8,152.1 106.9,154.5 109,156.5"/><polygon class="st0" points="119.6,171.8 122,174 124.1,171.4 121.8,169.1"/><path class="st0" d="M132.6,161.9c-2.7,0-5.7-1.5-7.5-2.7c-1.1-0.8-2.6-2.4-4.2-2.4c-2.1,0-3.5,3.8-3.5,4.1l0,0.4 c1.6-1.4,5,1,5.9,1.5c-2.1,0-7.7,0-9.7,0c0-0.1-1.3-0.8-1.3-2.2c0-0.5,0.2-0.8,0.2-1l-0.2-0.4c-1.2,0-1.8,3.5-1.9,3.6 c-2,0-5.1,0-7.1,0c0-0.3-0.5-0.6-1-2.1c-0.2-0.6-0.6-2.3-2.1-2.3c-0.4,0-1.8,0.2-2.6,1.6c-0.8,1.3-1,2.6-1.7,2.8 c-1.4,0-3.4,0-4.8,0c-0.8,0-1.1-0.6-1.1-1.6c0-3.8-0.4-7.8-0.5-8.2c-0.1-0.6,0-2-0.4-2c-0.2,0-0.2,0.1-1.2,1.7 c-0.2,0.3-1.2,1.7-1.2,1.8c0,0.1,0.6,1.8,0.7,2.3c0.4,2.3,0.6,6.4,0.6,6.4c0,2.8,0.2,3.6,0.8,3.6h5.2v0h0.7c1.5,0,1.1-1.3,1.8-2.1 c0.3,1.9-0.8,1,2.8,3.3c1.4,0.9,1.8,1.4,2,1.4c0.5,0,0.6-2.4,1-2.5c0.3-0.1,2.6-0.1,4-0.1v0h2.9c1.7,0,1.4-2.2,2-2.6 c0.5,3.2,1.6,2.6,4.4,2.6v0l7.8,0.1c0.8,0,3.2-1.7,4.8-1.7h1.3l1.5,0.3l2.1-3.7C132.6,161.9,132.6,161.9,132.6,161.9z M97.6,162.7 c0.4-0.4,1.2-0.9,1.8-0.9c0.5,0,1.6,0.9,1.6,2.1C101,163.9,98.8,163.4,97.6,162.7z"/><path class="st0" d="M138.1,172.3c-1.9,0.1-2.5-0.6-2.7-1l0.5-0.2c0.7-0.1,1.2,0.7,1.3,0.7l1.3-1.8c0-0.5-0.8-0.7-1.2-0.7 c-1.2-0.1-1.7,0.7-2.3,1.4c-0.4,0.5-0.8,1-0.7,1.5c0.1,1,0.9,1.2,1.4,1.5c-0.4,1-0.8,1.5-0.7,1.8c0.3-0.3,0.5-0.6,0.8-0.8 c1.1-0.8,2.2-0.8,2.8-0.9c0.1-0.2,0.6-0.7,0.6-1.5C139.2,171.9,139.1,172.3,138.1,172.3z"/><path class="st0" d="M146.3,150.7c-0.1,0-0.2,0-0.7,1.1c0,0-1,1.9-1.1,2.3c-0.1,0.5,0.6,2.3-1.2,4.4c-1.6-2.5-6.1-5.5-7.8-6.3 c-0.3,0-0.4,0.8-0.4,1c-0.1,0.4-0.5,1.5-0.4,2.6c0,0.7,0.2,0.6,1.5,2.1c0.6,0.7,1.3,1.4,1.3,1.4c0.3,0,0.2-0.3,0.5-1.4l3.7,2.7 c-0.5,0.8-4,2.1-4.4,2.3c-0.5,0.3-0.4-0.6-0.7-0.9c-0.3,0.3-0.3,2.1-0.3,2.1c0,2.5,0.6,2.9,0.7,2.9c0.5,0.1,9,0,9,0l0.2-0.4 c0-1.7,0.2-2.4,0.2-3.4c0-1.5-1.9-3.2-1.9-3.4c0-0.1-0.1,0.2,0.4-0.7c0.5-1,0.6-1.2,0.8-1.6c0.3,0.2,0.5,0.5,0.8,0.5 c0.2,0,0.2-0.1,0.8-1.4l0.9-2.1c0-0.4-0.7-0.9-1.2-2C146.5,151.4,146.6,150.7,146.3,150.7z M140.8,162.8l2.1-1.5 c0.1,0,1.1,0.9,1.3,1.5H140.8z"/><path class="st0" d="M153.2,152.3c0-0.4,0.2-1.2-0.2-1.2c-0.4,0-0.9,1.3-1,1.5c-0.8,1.6-1,2.2-1,2.5c0.1,1.8,0,2.1,0,2.8 c0.2,3.2-0.1,8.8,0.2,9.5c0.8-0.9,2.2-2.6,2.2-3.2C153.5,162.5,153.3,155.2,153.2,152.3z"/><path class="st0" d="M176.1,159.5c-0.2-0.8-0.8-1.9-1.2-2.3l-2.1,3.5c0.3,0.3,1.7,3.4,1.7,4.3c-0.2,1.3-1,1.4-3.5,1.4 c-2.8,0-3.9-1.7-3.9-3.3c0-1.8,1.1-3.9,1.1-4.1c0-0.3-0.1-0.4-0.3-0.4c-0.7,0-1.4,1.6-1.5,1.9c-1.6,2.8-1.6,5.3-1.6,5.3 c0,3,1.8,5.4,5.3,5.4c4.7,0,6.7-4.1,6.5-8.3C176.6,163,176.4,160.5,176.1,159.5z"/><polygon class="st0" points="175.4,151.8 173.1,149.5 170.9,152.1 173.3,154.4"/><polygon class="st0" points="209.6,153.1 207.3,150.8 205.1,153.5 207.5,155.7"/><path class="st0" d="M222.3,153.2c-0.4-0.7-0.4-0.9-0.4-1.4c0-0.2,0.1-0.5-0.2-1c0,0-2.2,2.7-2.3,4.2c0.1,0.8,0.6,1.4,0.8,2.9 c0.3,2.3,0.4,3.8,0.6,4.4v0.4h-1.4v0h-2.8l0.3-0.8c0-1.6-1.6-4.7-4.1-4.5c-1.5,0.2-5.8,3.1-6.4,3.6c-1.6,1.1-2.6,1.5-2.6,1.5 c-0.4,0.1-0.6,0.2-0.7,0.2c0,0-0.1,0-0.1,0c-0.7-0.2-0.9,0.1-0.9-1.3c0-1.2,0.3-1.8,0.3-1.8l-0.3-0.4c-0.5,0-1.6,1.6-1.5,3.5 c-0.8,0-1.3,0-1.8,0v0h-3.9c0-0.3-0.5-0.6-1-2.1c-0.2-0.6-0.6-2.3-2.1-2.3c-0.4,0-1.8,0.2-2.6,1.6c-0.8,1.3-1,2.6-1.7,2.8 c-1.4,0-3.4,0-4.8,0c-0.8,0-1.1-0.6-1.1-1.6c0-3.8-0.4-7.8-0.5-8.2c0-0.6,0-2-0.4-2c-0.2,0-0.2,0.1-1.2,1.7 c-0.2,0.3-1.2,1.7-1.2,1.8c0,0.1,0.6,1.8,0.7,2.3c0.4,2.3,0.6,6.4,0.6,6.4c0,2.8,0.2,3.6,0.7,3.6h5.2v0h0.7c1.5,0,1.1-1.3,1.8-2.1 c0.3,1.9-0.8,1,2.8,3.3c1.4,0.9,1.8,1.4,2,1.4c0.5,0,0.6-2.4,1-2.5c0.3-0.1,2.6-0.1,4-0.1v0c0,0,0.3,0,0.8,0c0.1,0,0.2,0,0.2,0v0 c0.2,0,0.4,0,0.6-0.1c0.7-0.1,1-0.7,1.2-1.2c0.3,0.6,1.1,1,2,1.2v0c0.1,0,0.3,0,0.5,0.1c0.6,0.1,1.1,0.1,1.4,0.1 c3.8,0.1,11.6,0,14.2,0h2.4c1,0,1.3-0.5,1.6-1.2c0.4-1,0.4-1.9,0.3-3c-0.2-1.9-0.6-5-0.6-5l0.5-0.2c0.4-0.5,0.9-1.5,1-2.2 C224,154,223,154.3,222.3,153.2z M189.2,162.7c0.4-0.4,1.2-0.9,1.8-0.9c0.5,0,1.6,0.9,1.6,2.1 C192.6,163.9,190.4,163.4,189.2,162.7z M206.8,162.8l0.1-0.1c0,0,3-1.7,3.9-1.7c0.8,0,2.3,0.9,2.7,1.8H206.8z"/><path class="st0" d="M228.4,155c0-1.1-0.1-1.7-0.1-2.8c0-0.4,0.2-1.2-0.2-1.2c-0.4,0-0.9,1.3-1,1.5c-0.8,1.6-1,2.2-1,2.5 c0.1,1.8,0,2.1,0.1,2.8c0.2,3.2-0.1,8.8,0.2,9.5c0.8-0.9,2.2-2.6,2.2-3.2C228.6,163.5,228.5,157.5,228.4,155z"/></g><path class="st0" d="M85.6,204c-0.1,0-0.4,0-0.6,0c-4.2,1.4-9.1,3.2-13.9,3c-5.7-0.1-12.5-1.1-16-5.8c-3.1-4.4-0.9-10.2,3.8-12.5 c6.9-3.7,16.5-3.1,23.8-1c0.7,0.2,1.1,0.3,1.2,0.3l0.5-0.2l0.3-0.3l0.8,0.5l-4.2,4.8l-0.5-0.3l0-0.2l-0.1-0.3 c-0.1-0.3-0.4-0.6-1.1-0.9c-5-2-11.7-2.5-16.4,0.2c-4.5,2.5-4.5,8,0,10.5c4.4,2.5,10.4,2.2,15.1,0.8c1.3-0.5,3.4-0.9,3.7-2.1 l-0.2-0.5l0.8-0.3l3.6,4.2L85.6,204"/><path class="st0" d="M104.2,206.1c0.7,0,1-0.2,1-0.7v-17.9c0-0.5-0.3-0.7-1-0.7v-0.7h9.3v0.7c-0.9,0.2-0.3,0.9,0.6,1.5l15.6,11.7 v-12.5c0-0.5-0.5-0.7-1.4-0.7v-0.7h8.2v0.7c-0.7,0-1,0.2-1,0.7v17.9c0,0.5,0.4,0.7,1,0.7v0.7h-8.8v-0.7c1.2-0.1,0.8-0.6-0.2-1.3 L111,192.3v13.1c0,0.5,0.4,0.7,1.3,0.7v0.7h-8V206.1"/><path class="st0" d="M157.6,200.3l0.5,0.2l0.2,0.6c0.3,0.3,0.8,0.6,1.5,0.9c0.7,0.3,1.6,0.6,2.6,0.8c3.6,0.9,7.4,1.1,11.1,0.3 c1.4-0.4,3.4-0.8,3.5-2.3c0-0.6-0.3-1.1-1-1.3c-5.4-1.8-12.3-0.2-17.7-2.4c-4.5-1.7-4.6-7-0.2-9.2c4-2.2,10.4-2.4,15-1.7 c2.3,0.4,4.4,0.8,6.3,1.3c1,0.3,2.1,0.5,2.9,0.1l0.7,0.3l-3.8,4.9l-0.6-0.2c-0.4-1.7-2.6-2.1-4.2-2.6c-3.9-0.9-8.9-1.4-12.6,0.5 c-1.1,0.7-0.8,2,0.3,2.5c0.6,0.3,1.5,0.5,2.5,0.7c3.6,0.5,7.9,0.3,11.6,0.9c2.3,0.4,4.5,1,6.1,2.7c1.4,1.6,1.2,4.8-0.6,6.2 c-5,4.2-16.2,3.7-22,2.4c-0.9-0.3-1.6-0.5-2.2-0.7c-0.6-0.2-1-0.3-1.4-0.3l-0.7,0.3l-0.8-0.3L157.6,200.3"/><path class="st0" d="M203.1,200.3l0.5,0.2l0.2,0.6c0.3,0.3,0.8,0.6,1.5,0.9c0.7,0.3,1.6,0.6,2.6,0.8c3.7,0.9,7.4,1.1,11.1,0.3 c0.9-0.2,1.7-0.5,2.4-0.9c1.3-0.6,1.4-2.2,0.1-2.8c-5.4-1.8-12.3-0.2-17.7-2.4c-4.5-1.7-4.6-7-0.2-9.2c4-2.2,10.4-2.4,15-1.7 c2.3,0.4,4.4,0.8,6.3,1.3c1,0.3,2.1,0.5,2.9,0.1l0.7,0.3l-3.7,4.9l-0.5-0.2c-0.1-0.4-0.2-0.7-0.4-0.9c-0.3-0.3-0.8-0.6-1.4-0.9 c-2.5-1.1-5.7-1.6-8.5-1.6c-2.1,0-4.7,0.2-6.5,1.3c-1.1,0.7-0.8,2,0.3,2.5c4.2,1.6,9.6,0.7,14.1,1.6c2.3,0.4,4.6,1,6,2.7 c1.4,1.6,1.3,4.8-0.5,6.2c-4.9,4.2-16.2,3.7-22,2.4c-1.5-0.3-2.4-0.9-3.6-1l-0.7,0.3l-0.7-0.3L203.1,200.3"/></g></svg>